<?xml version="1.0" standalone="no"?>
<!DOCTYPE svg PUBLIC "-//W3C//DTD SVG 20010904//EN"
 "http://www.w3.org/TR/2001/REC-SVG-20010904/DTD/svg10.dtd">
<svg version="1.0" xmlns="http://www.w3.org/2000/svg"
 width="260.000000pt" height="260.000000pt" viewBox="0 0 260.000000 260.000000"
 preserveAspectRatio="xMidYMid meet">
<metadata>
Created by potrace 1.11, written by Peter Selinger 2001-2013
</metadata>
<g transform="translate(0.000000,260.000000) scale(0.100000,-0.100000)"
fill="#000000" stroke="none">
<path d="M0 1300 l0 -1300 1300 0 1300 0 0 1300 0 1300 -1300 0 -1300 0 0
-1300z m1025 530 c-11 -5 -85 -8 -165 -7 -143 1 -144 1 -45 7 160 10 233 10
210 0z m763 -7 c-53 -2 -143 -2 -200 0 -57 1 -13 3 97 3 110 0 156 -2 103 -3z
m-566 -75 c-90 -167 -174 -329 -171 -333 2 -2 47 75 99 171 84 154 97 174 120
174 14 0 35 3 48 6 21 6 22 5 12 -20 -6 -16 -9 -96 -8 -184 l2 -157 6 162 c4
143 7 165 26 190 39 52 45 53 393 53 254 0 322 -3 319 -12 -3 -7 -17 -50 -32
-95 l-28 -83 -209 0 -209 0 2 -67 2 -68 3 63 4 62 169 0 c94 0 170 -2 170 -4
0 -2 -32 -17 -71 -32 -38 -15 -72 -31 -75 -36 -9 -15 15 -36 54 -48 20 -7 57
-19 82 -28 l45 -17 -190 -6 -190 -5 207 0 c116 1 204 -3 201 -8 -3 -5 0 -7 8
-4 16 5 79 -55 79 -75 0 -23 46 -121 63 -136 23 -18 49 -6 72 31 26 44 25 131
-4 224 -29 97 -26 101 15 22 19 -38 36 -68 39 -68 5 0 -14 44 -74 173 -23 49
-41 91 -41 93 0 2 52 4 115 4 l115 0 69 -137 c76 -149 92 -171 36 -49 -19 42
-32 76 -30 76 13 0 115 -239 115 -271 0 -9 -8 -23 -19 -30 -10 -8 -51 -84 -91
-169 -39 -85 -75 -159 -79 -163 -4 -4 -58 -6 -119 -5 l-112 3 36 75 c73 151
103 220 95 220 -5 0 -39 -64 -76 -143 -52 -109 -75 -147 -96 -160 l-29 -16 -2
152 -2 152 -5 -147 -6 -148 -33 -32 -32 -33 -336 -3 c-271 -2 -336 0 -332 10
3 7 18 50 34 95 l29 83 210 0 210 0 -5 72 -5 73 -3 -67 -3 -68 -172 1 c-188 0
-186 -2 -64 49 73 30 62 44 -83 95 -41 15 -88 32 -104 38 -33 12 -66 61 -66
97 0 45 -42 200 -60 223 -15 18 -22 20 -46 12 -37 -13 -117 -119 -174 -230
-72 -140 -66 -211 24 -266 l31 -19 -113 0 -114 0 32 56 c17 31 29 59 26 62 -7
7 -7 7 -39 -52 -43 -79 -48 -76 136 -76 l162 0 29 -83 c16 -45 31 -88 34 -94
3 -10 -74 -13 -363 -13 -293 0 -365 3 -358 13 25 30 174 327 165 327 -6 0 -31
-42 -58 -92 -26 -51 -56 -106 -66 -123 l-19 -30 7 30 c3 17 32 75 64 130 126
218 177 339 163 384 -13 42 -30 64 -68 87 l-40 24 113 0 c61 0 112 -3 112 -6
0 -3 -23 -48 -51 -100 -28 -52 -48 -94 -46 -94 8 0 107 185 107 199 0 8 -48
11 -159 11 l-158 0 -32 86 c-17 47 -31 90 -31 95 0 5 114 10 253 12 138 1 303
3 365 5 l113 2 -39 -72z m-782 -63 c0 -3 -25 -61 -56 -128 -68 -149 -76 -173
-30 -87 41 76 44 75 14 -6 -30 -83 -30 -218 0 -292 32 -77 26 -77 -14 1 -19
37 -38 67 -43 67 -6 0 22 -66 60 -146 38 -80 69 -147 69 -150 0 -3 -52 -3
-115 -2 l-115 3 -76 160 c-42 88 -85 170 -96 182 l-21 22 33 88 c34 91 80 186
87 179 3 -2 -4 -21 -15 -43 -26 -51 -52 -113 -47 -113 2 0 33 61 69 135 l65
135 115 0 c64 0 116 -2 116 -5z m-341 -548 c17 -37 28 -67 25 -67 -6 0 -64
125 -64 136 0 14 9 -2 39 -69z m2402 -23 c-16 -33 -30 -56 -31 -52 0 11 53
118 58 114 2 -2 -10 -30 -27 -62z m-1529 -271 c-50 -2 -134 -2 -185 0 -50 1
-9 3 93 3 102 0 143 -2 92 -3z m846 0 c-54 -2 -142 -2 -195 0 -54 1 -10 3 97
3 107 0 151 -2 98 -3z"/>
</g>
</svg>
